<?xml version="1.0" encoding="utf-8"?>
<!-- Generator: Adobe Illustrator 16.0.0, SVG Export Plug-In . SVG Version: 6.00 Build 0)  -->
<!DOCTYPE svg PUBLIC "-//W3C//DTD SVG 1.1//EN" "http://www.w3.org/Graphics/SVG/1.1/DTD/svg11.dtd">
<svg version="1.1" id="Layer_1" xmlns="http://www.w3.org/2000/svg" xmlns:xlink="http://www.w3.org/1999/xlink" x="0px" y="0px"
	 width="707.629px" height="109.714px" viewBox="0 0 707.629 109.714" enable-background="new 0 0 707.629 109.714"
	 xml:space="preserve">
<g>
	<path fill="#00ADEF" d="M93.475,73.736c0-8.575-2.658-15.1-7.973-19.575c-5.315-4.478-11.835-7.813-19.56-10.005
		c-7.724-2.189-14.894-4.287-21.508-6.287c-6.568-1.953-9.851-4.572-9.851-7.859c0-3.904,3.615-5.857,10.843-5.857
		c3.448,0,6.401,0.701,8.859,2.107c2.456,1.405,3.897,3.68,4.322,6.822H90.71c-1.229-9.954-5.481-17.957-12.756-24.006
		C70.726,3.026,60.309,0,46.7,0c-8.646,0-16.288,1.25-22.925,3.751c-6.639,2.5-11.824,6.266-15.556,11.289
		c-3.732,5.025-5.599,11.135-5.599,18.327c0,8.954,2.669,15.753,8.008,20.397c5.338,4.646,11.834,8.039,19.489,10.182
		c7.7,2.144,14.857,4.191,21.473,6.146c6.661,2,9.993,4.668,9.993,8.002c0,2.428-1.3,4.311-3.898,5.645
		c-2.551,1.335-6.024,2-10.418,2c-3.591,0-6.767-0.951-9.532-2.855c-2.764-1.904-4.571-4.67-5.421-8.289H0
		c0.284,6.336,2.362,12.195,6.237,17.576c3.873,5.336,9.224,9.574,16.051,12.719c6.827,3.145,14.634,4.715,23.422,4.715
		c9.542,0,17.905-1.334,25.087-4c7.182-2.668,12.756-6.692,16.725-12.076C91.49,88.144,93.475,81.546,93.475,73.736z"/>
	<rect x="203.241" y="0" fill="#00ADEF" width="28.642" height="106.958"/>
	<polygon fill="#00ADEF" points="273.305,0 244.436,0 244.436,106.958 314.411,106.958 318.805,82.667 273.305,82.667 	"/>
	<path fill="#00ADEF" d="M144.543,0h-1.342h-12.883L87.225,106.958h28.66l7.853-20.172h40.271l7.853,20.172h28.66L157.425,0H144.543
		z M132.531,64.193l11.341-29.133l11.341,29.133H132.531z"/>
	<polygon fill="#00ADEF" points="467.542,41.599 425.181,41.599 425.181,24.027 425.181,0 396.312,0 309.705,0 304.371,24.027 
		338.888,24.027 323.511,106.958 352.381,106.958 368.697,24.027 396.312,24.027 396.312,106.958 425.181,106.958 425.181,64.82 
		467.542,64.82 467.542,106.958 496.411,106.958 496.411,0 467.542,0 	"/>
	<path fill="#00ADEF" d="M599.649,36.087C599.649,16.158,583.491,0,563.561,0h-24.787h-17.259h-11.611v106.958h28.87V72.181h10.542
		l23.031,34.777h31.174l-25.142-37.963C590.918,63.339,599.649,50.738,599.649,36.087z M558.993,50.218h-20.22V23.509h20.22
		c7.375,0,13.354,5.979,13.354,13.354S566.368,50.218,558.993,50.218z"/>
	<path fill="#00ADEF" d="M679.211,0v65.435c0,10.717-8.688,19.404-19.404,19.404s-19.403-8.688-19.403-19.404V0h-28.421v61.89
		c0,26.412,21.411,47.824,47.824,47.824c26.41,0,47.822-21.412,47.822-47.824V0H679.211z"/>
</g>
</svg>
